<?xml version="1.0" encoding="utf-8" ?>
<svg xmlns="http://www.w3.org/2000/svg" xmlns:xlink="http://www.w3.org/1999/xlink" width="1000" height="1000">
        <path fill="#8c52ff" d="M461.866 18.2896C481.6 17.8714 501.397 18.0933 521.137 18.1054C533.905 18.1132 547.004 17.5731 559.736 18.3756C582.521 19.8118 604.977 23.7895 627.315 28.2205C634.234 29.5929 641.273 30.2937 648.177 31.7841C684.497 39.8825 720.174 50.6301 754.923 63.9405C793.205 78.6708 903.536 127.004 919.623 163.948C922.719 171.058 923.846 178.857 924.369 186.54C925.609 204.732 924.818 223.346 924.86 241.602L924.973 346.05L924.984 451.806C924.92 485.904 924.953 519.543 921.14 553.49C920.588 558.406 919.362 563.23 918.502 568.098C913.98 593.717 907.308 618.077 897.599 642.223C886.219 670.859 871.616 698.106 854.072 723.438C837.46 747.282 818.429 768.696 798.061 789.335C785.063 802.688 771.568 815.548 757.605 827.888C750.851 833.787 743.676 839.28 736.686 844.9C729.743 850.482 722.951 856.356 715.853 861.733C689.119 881.984 660.494 900.421 631.789 917.727C614.294 928.274 597.06 939.08 578.979 948.637C564.012 956.548 548.634 963.33 533.075 969.96C527.66 972.202 522.748 973.67 516.907 974.252C507.129 975.227 495.449 975.615 485.904 973.239C469.828 969.237 455.21 961.681 440.427 954.406C398.879 933.699 358.951 909.889 320.983 883.177C301.88 870.01 282.752 856.509 264.831 841.763C245.801 826.105 226.809 809.62 209.409 792.152C168.808 751.39 132.414 702.563 109.871 649.408C99.807 625.679 92.3211 600.239 87.0655 575.042C84.6813 563.611 82.4982 551.567 81.1902 539.971C80.3959 532.93 80.2706 525.838 79.6903 518.78C79.2976 514.003 78.5662 509.258 78.1076 504.487C76.3913 486.633 77.3108 465.133 77.2275 446.896L77.1859 333.009L77.3517 238.988C77.4333 223.702 76.3283 207.756 78.1147 192.597C79.7618 178.621 82.6973 165.29 91.9401 154.243C108.941 133.924 136.922 119.169 160.238 107.196C217.196 78.2097 277.248 55.7558 339.251 40.2621C379.448 29.8567 420.455 21.7745 461.866 18.2896ZM245.197 221.079C244.564 231.942 244.546 242.898 243.665 253.733C242.038 273.738 239.607 293.753 238.148 313.768C237.163 327.279 237.011 340.903 236.662 354.443C236.261 370.027 234.71 384.32 239.085 399.668C243.727 415.952 255.041 431.01 266.168 443.523C274.021 452.354 282.658 460.934 291.497 468.775C305.255 480.98 323.253 494.239 333.438 509.522C338.182 516.641 341.447 525.643 342.83 534.061C344.563 544.609 343.274 560.116 342.631 571.041C342.182 578.67 341.249 586.269 340.81 593.903C340.126 605.79 340.247 617.725 339.707 629.619C338.817 649.228 337.454 668.852 336.978 688.476C336.502 708.113 336.93 727.769 336.538 747.406C336.287 759.981 335.947 772.688 335.35 785.251C335.046 791.652 333.909 797.998 334.591 804.415C335.209 810.22 337.331 815.486 341.239 819.885C349.94 829.679 364.293 833.682 376.935 834.365C390.43 835.094 404.883 831.193 415.097 822.024C424.147 813.899 425.986 803.795 426.554 792.161C427.19 779.143 425.737 765.702 425.708 752.62C425.87 725.001 425.47 697.382 424.509 669.779C423.981 653.819 422.938 637.855 422.427 621.884C422.184 614.287 422.334 606.679 422.118 599.08C421.458 575.91 416.535 545.123 422.731 523.246C427.174 507.557 438.053 497.503 449.732 486.847C456.47 480.7 463.657 475.056 470.482 469.006C487.651 453.786 510.62 431.211 519.474 409.732C523.41 400.184 525.135 390.484 525.641 380.217C526.187 369.139 524.959 358.206 524.725 347.159C524.499 336.488 524.85 325.767 524.327 315.101C523.907 306.556 522.803 298.056 522.211 289.521C521.576 280.346 521.448 271.083 520.667 261.931C520.118 255.496 519.114 249.11 518.644 242.667C518.002 233.887 517.769 225.085 517.164 216.311C516.778 210.721 515.95 205.156 515.463 199.572C514.905 193.17 514.926 186.626 513.509 180.328C512.525 175.955 509.473 171.16 506.456 167.89C502.812 163.941 497.814 160.277 492.264 160.181C491.662 160.171 491.104 160.224 490.514 160.341C486.568 160.732 480.176 160.729 477.401 164.061C476.209 165.493 475.958 167.611 475.771 169.4C473.727 188.991 474.612 209.345 474.587 229.039L474.558 327.67C474.56 338.562 475.935 365.063 473.093 374.191C471.09 380.625 466.664 385.651 459.802 386.614C454.703 387.329 449.255 386.656 445.183 383.294C439.947 378.972 438.1 372.772 437.654 366.271C436.678 352.042 437.486 337.37 437.435 323.073C437.31 287.936 437.745 252.743 437.219 217.615C437.037 205.415 438.757 191.662 436.362 179.667C435.504 175.367 433.003 171.404 429.735 168.518C426.299 165.484 421.536 163.346 416.878 163.714C413.072 164.014 409.404 166.046 407.031 169.014C404.64 172.004 403.57 175.795 403.145 179.545C402.468 185.533 402.824 191.806 402.862 197.834C402.948 207.007 402.967 216.181 402.92 225.355L402.929 334.297C402.93 343.063 404.159 365.826 401.903 373.346C399.865 380.139 394.556 386.271 387.241 387.162C382.183 387.778 376.419 386.701 372.432 383.418C367.503 379.361 365.017 373.798 364.543 367.563C363.37 352.147 364.191 336.215 364.17 320.723L364.21 222.041C364.162 214.342 363.886 206.64 363.854 198.946C363.827 192.421 364.513 185.231 363.293 178.803C362.47 174.465 360.658 170.812 357.235 167.948C353.74 165.023 348.731 163.179 344.148 163.563C339.358 163.965 335.123 166.83 332.132 170.469C329.792 173.315 328.432 176.327 327.949 179.973C327.032 186.903 327.329 194.042 327.333 201.022L327.359 231.211L327.365 331.551C327.358 342.562 328.751 364.568 325.583 374.151C323.395 380.771 318.336 385.608 311.307 386.461C306.513 387.043 301.971 387.071 298.02 383.933C293.732 380.527 290.08 374.931 289.505 369.414C288.899 363.59 289.186 357.421 289.167 351.564L289.092 320.635L289.055 221.425C289.045 210.733 290.317 188.078 288.4 178.688C287.471 174.14 284.876 169.726 281.264 166.79C277.728 163.915 272.65 161.827 268.026 162.302C262.358 162.885 257.026 166.019 253.516 170.463C245.194 180.998 247.393 207.505 245.197 221.079ZM518.785 845.147C522.084 847.127 525.394 849.259 528.932 850.781C541.131 856.033 556.656 857.199 569.539 853.853C579.996 851.137 588.07 841.631 593.157 832.54C604.221 812.764 610.102 780.704 615.051 758.405L633.063 678.028C637.296 659.198 640.936 640.475 646.84 622.046C658.612 585.296 696.108 584.715 701.199 573.585C704.696 565.94 706.548 556.787 708.813 548.711C716.579 521.125 723.007 493.181 728.076 464.975C731.754 445.36 734.501 425.491 737.588 405.772C745.763 355.599 752.495 305.201 757.776 254.64L761.872 214.133C763.313 198.994 766.638 175.213 762.515 160.711C761.233 156.202 759.164 150.865 754.822 148.529C753.539 147.839 752.747 147.764 751.325 147.957C742.11 151.792 729.427 168.3 723.475 176.318C681.298 233.134 648.141 305.785 621.218 371.101C601.738 418.889 584.3 467.485 568.949 516.756C561.428 540.367 553.725 563.86 546.776 587.657C543.148 600.077 540.074 612.662 536.667 625.132C535.576 629.126 534.089 633.014 533.037 637.017C531.771 641.839 531.005 646.773 529.815 651.611L509.31 735.482C507.972 741.028 506.178 746.481 504.967 752.051C503.895 756.983 503.389 762.007 502.204 766.919C499.31 778.924 494.623 795.122 493.765 807.084C493.431 811.745 493.606 815.969 495.404 820.366C499.237 829.742 510.292 839.931 518.785 845.147Z"/>
</svg>